<?xml version="1.0" encoding="iso-8859-1"?>
<!-- Generator: Adobe Illustrator 24.0.3, SVG Export Plug-In . SVG Version: 6.00 Build 0)  -->
<svg version="1.1" id="Layer_1" xmlns="http://www.w3.org/2000/svg" xmlns:xlink="http://www.w3.org/1999/xlink" x="0px" y="0px"
	 width="38px" height="38px" viewBox="0 0 38 38" style="enable-background:new 0 0 38 38;" xml:space="preserve">
<g>
	<path style="fill:#FFFFFF;" d="M19,37.5c10.217,0,18.5-8.283,18.5-18.5S29.217,0.5,19,0.5S0.5,8.783,0.5,19S8.783,37.5,19,37.5z
		 M9.406,17.976c0.001-0.001,0.003-0.003,0.004-0.004l8.856-8.856c0.424-0.426,1.114-0.428,1.54-0.004
		c0.001,0.001,0.003,0.003,0.004,0.004l1.012,1.011c0.426,0.434,0.419,1.13-0.014,1.556c-0.003,0.003-0.005,0.005-0.008,0.007
		l-5.49,5.23h13.097c0.603-0.001,1.092,0.486,1.093,1.089c0,0.001,0,0.003,0,0.004v1.457c0.001,0.603-0.486,1.092-1.089,1.093
		c-0.001,0-0.003,0-0.004,0H15.314l5.486,5.231c0.437,0.411,0.458,1.099,0.047,1.537c-0.008,0.009-0.016,0.017-0.025,0.025
		l-1.012,1.012c-0.424,0.426-1.114,0.428-1.54,0.004c-0.001-0.001-0.003-0.003-0.004-0.004L9.41,19.516
		C8.984,19.092,8.982,18.402,9.406,17.976z"/>
</g>
</svg>
