<svg version="1.1" id="Layer_1" xmlns="http://www.w3.org/2000/svg" x="0px" y="0px"
	 width="24px" height="24px" viewBox="0 0 24 24" style="enable-background:new 0 0 24 24;" xml:space="preserve">
<g>
	<path style="fill:#FF454F;" d="M12.062,0.938c-6.05,0-11,4.95-11,11s4.95,11,11,11s11-4.95,11-11S18.112,0.938,12.062,0.938z"/>
	<path style="fill:#FFFFFF;" d="M8.633,17.89c1.876-1.876,4.982-1.876,6.859,0c0.259,0.259,0.647,0.259,0.906,0s0.259-0.647,0-0.906
		c-1.197-1.197-2.75-1.812-4.335-1.812s-3.138,0.615-4.335,1.812c-0.259,0.259-0.259,0.647,0,0.906
		C7.986,18.149,8.374,18.149,8.633,17.89z"/>
	<circle style="fill:#FFFFFF;" cx="8.827" cy="9.349" r="1.618"/>
	<circle style="fill:#FFFFFF;" cx="15.298" cy="9.349" r="1.618"/>
</g>
</svg>
