<svg version="1.1" id="Layer_1" xmlns="http://www.w3.org/2000/svg" x="0px" y="0px"
	 width="24px" height="24px" viewBox="0 0 24 24" style="enable-background:new 0 0 24 24;" xml:space="preserve">
<g>
	<path style="fill:#33c180;" d="M11.889,0.954c-6.05,0-11,4.95-11,11s4.95,11,11,11s11-4.95,11-11S17.939,0.954,11.889,0.954z"/>
	<path style="fill:#FFFFFF;" d="M15.318,15.383c-1.876,1.876-4.982,1.876-6.859,0c-0.259-0.259-0.647-0.259-0.906,0
			c-0.259,0.259-0.259,0.647,0,0.906c1.197,1.197,2.75,1.812,4.335,1.812s3.138-0.615,4.335-1.812c0.259-0.259,0.259-0.647,0-0.906
			C15.965,15.124,15.577,15.124,15.318,15.383z"/>
	<circle style="fill:#FFFFFF;" cx="8.653" cy="9.365" r="1.618"/>
	<circle style="fill:#FFFFFF;" cx="15.124" cy="9.365" r="1.618"/>
</g>
</svg>
