<svg version="1.1" id="Layer_1" xmlns="http://www.w3.org/2000/svg" x="0px" y="0px"
	 width="40px" height="40px" viewBox="0 0 40 40" style="enable-background:new 0 0 40 40;" xml:space="preserve">
<g>
	<path style="fill:#ffffff;" d="M29.312,32.776c-3.51,1.328-7.244,1.494-10.714,0.607c-3.183-0.813-6.43-2.341-8.799-4.836
		C4.831,23.525,2.991,16.213,4.44,9.372c-4.859,7.333-4.059,17.309,2.402,23.77c7.375,7.375,19.333,7.375,26.708,0
		c2.485-2.485,4.113-5.495,4.923-8.671C36.588,28.278,33.324,31.265,29.312,32.776z"/>
	<path style="fill:#ffffff;" d="M11.651,26.708c4.264,4.517,11.039,5.839,16.829,3.641c3.817-1.445,6.842-4.46,8.299-8.272
		c1.137-2.956,0.902-6.235-0.644-8.998c-1.922-3.291-5.493-5.37-9.317-5.423c-3.832,0.064-7.264,2.259-8.941,5.728
		c-1.424,3.087-1.214,6.541,0.541,8.791c2.151,2.646,5.658,3.702,8.93,2.684c2.154-0.778,3.629-2.786,3.737-5.107
		c0.019-1.794-1.053-3.42-2.733-4.124c-1.074-0.448-2.286-0.437-3.323,0.022c-0.587,0.282-1.029,0.822-1.197,1.475
		c-0.18,0.683,0.094,1.399,0.682,1.785c0.293,0.175,0.705,0.103,0.946-0.177c0.304-0.296,0.631-0.428,0.982-0.418
		c0.345,0.012,0.662,0.155,0.896,0.403c0.249,0.278,0.365,0.602,0.345,0.947c-0.019,0.34-0.17,0.652-0.425,0.878
		c-0.996,1.102-2.736,1.354-4.086,0.562c-1.548-1.002-2.276-2.844-1.831-4.598c0.359-1.411,1.321-2.571,2.641-3.184
		c1.724-0.789,3.701-0.804,5.421-0.048c2.614,1.123,4.284,3.692,4.25,6.542c-0.156,3.379-2.291,6.302-5.44,7.465
		c-4.267,1.385-8.993-0.026-11.778-3.503c-2.347-3.011-2.684-7.498-0.862-11.438c2.101-4.355,6.399-7.115,11.22-7.211
		c2.942,0.007,5.749,0.99,8.023,2.709c-0.395-0.482-0.815-0.95-1.265-1.4C26.82-0.296,16.284-0.864,8.886,4.69
		C8.442,5.467,8.054,6.263,7.742,7.076C5.23,13.799,6.589,21.609,11.651,26.708z"/>
</g>
</svg>
