<?xml version="1.0" encoding="iso-8859-1"?>
<!-- Generator: Adobe Illustrator 24.0.3, SVG Export Plug-In . SVG Version: 6.00 Build 0)  -->
<svg version="1.1" id="Layer_1" xmlns="http://www.w3.org/2000/svg" xmlns:xlink="http://www.w3.org/1999/xlink" x="0px" y="0px"
	 width="40px" height="40px" viewBox="0 0 40 40" style="enable-background:new 0 0 40 40;" xml:space="preserve">
<path style="fill:#ffffff;" d="M26.172,39.396c0,0-0.476,0.003-1.368,0.011c-0.223,0.001-0.471,0.002-0.746,0.004
	c-0.274-0.025-0.573-0.052-0.897-0.08c-0.326-0.031-0.676-0.065-1.051-0.102c-0.377-0.034-0.759-0.145-1.173-0.222
	c-1.661-0.296-3.637-0.957-5.728-2.081c-2.089-1.124-4.29-2.77-6.18-5.056c-1.896-2.267-3.497-5.163-4.336-8.498
	c-0.132-0.411-0.203-0.836-0.274-1.265c-0.075-0.43-0.149-0.862-0.225-1.297c-0.058-0.437-0.073-0.881-0.109-1.327l-0.047-0.672
	l-0.023-0.337l-0.003-0.041c-0.002-0.001,0.003-0.142,0.001-0.101l0.002-0.08l0.005-0.16c0.012-0.428,0.024-0.859,0.036-1.292
	c0.024-0.444,0.115-0.945,0.175-1.42c0.052-0.491,0.166-0.948,0.282-1.407c0.116-0.46,0.208-0.929,0.385-1.376
	c0.573-1.83,1.498-3.582,2.681-5.165c1.181-1.586,2.638-3.003,4.316-4.14c1.679-1.135,3.575-1.974,5.558-2.491l0.746-0.194
	c0.249-0.061,0.507-0.087,0.76-0.132c0.509-0.065,1.013-0.193,1.528-0.202l0.771-0.043l0.386-0.02l0.193-0.01l0.095-0.005
	c0.049,0-0.04-0.004,0.122,0l0.043,0.001c0.482,0.027,0.935,0.033,1.438,0.076c0.541,0.082,1.105,0.148,1.623,0.267
	c0.507,0.142,1.025,0.24,1.517,0.426c0.992,0.345,1.958,0.771,2.849,1.318c1.796,1.073,3.35,2.521,4.539,4.206
	c1.198,1.681,2.015,3.61,2.391,5.594c0.068,0.5,0.138,0.997,0.207,1.492l0.029,0.749l0.013,0.372l0.007,0.187l0.004,0.093
	l0.001,0.047c0,0.044,0.004-0.034,0,0.111l-0.044,0.675c-0.013,0.224-0.022,0.439-0.073,0.718c-0.078,0.527-0.161,1.052-0.306,1.519
	c-0.237,0.971-0.654,1.875-1.103,2.738c-0.5,0.836-1.046,1.64-1.722,2.313c-0.64,0.705-1.393,1.279-2.153,1.804
	c-0.79,0.483-1.6,0.913-2.453,1.201c-1.683,0.603-3.493,0.797-5.101,0.624c-0.898-0.136-1.716-0.319-2.466-0.651
	c-0.388-0.136-0.735-0.351-1.093-0.528c-0.337-0.214-0.681-0.412-0.987-0.657c-1.236-0.951-2.21-2.129-2.798-3.407
	c-0.597-1.274-0.867-2.599-0.88-3.828c-0.022-1.218,0.239-2.415,0.721-3.358c0.473-0.954,1.105-1.712,1.756-2.278
	c0.654-0.57,1.33-0.956,1.95-1.192c0.3-0.141,0.605-0.202,0.866-0.29c0.274-0.06,0.521-0.108,0.742-0.147
	c0.45-0.049,0.791-0.074,1.022-0.061c0.231,0.001,0.35,0.003,0.35,0.003s-0.118,0.013-0.348,0.037
	c-0.229,0.013-0.564,0.078-0.994,0.175c-0.211,0.063-0.445,0.138-0.699,0.225c-0.244,0.115-0.523,0.204-0.794,0.371
	c-0.556,0.293-1.15,0.718-1.7,1.297c-1.102,1.14-1.997,2.994-1.767,5.163c0.172,2.149,1.362,4.506,3.534,5.934
	c0.263,0.185,0.558,0.328,0.842,0.487c0.303,0.122,0.591,0.283,0.914,0.37c0.624,0.239,1.303,0.328,1.924,0.397
	c1.453,0.066,2.865-0.154,4.234-0.709c0.686-0.263,1.325-0.647,1.948-1.061c0.593-0.457,1.181-0.941,1.667-1.531
	c0.516-0.564,0.92-1.224,1.306-1.891c0.333-0.697,0.648-1.416,0.809-2.185c0.111-0.388,0.147-0.75,0.201-1.111
	c0.036-0.164,0.04-0.398,0.047-0.625l0.025-0.675c-0.003,0.118-0.002,0.01-0.004,0.026l-0.003-0.037l-0.006-0.077l-0.01-0.153
	l-0.02-0.307l-0.039-0.613c-0.067-0.405-0.135-0.811-0.202-1.217c-0.36-1.608-1.053-3.154-2.028-4.515
	c-0.978-1.359-2.251-2.521-3.709-3.375c-0.724-0.438-1.507-0.771-2.307-1.043c-0.396-0.151-0.817-0.217-1.225-0.333
	c-0.405-0.091-0.791-0.12-1.185-0.196c-0.441-0.043-0.94-0.057-1.406-0.087l-1.232,0.058c-0.437-0.002-0.86,0.112-1.291,0.159
	c-0.214,0.037-0.431,0.052-0.64,0.103l-0.63,0.16c-1.675,0.422-3.283,1.112-4.713,2.06c-2.829,1.92-5.072,4.679-6.139,7.801
	c-0.166,0.379-0.25,0.78-0.362,1.173c-0.112,0.394-0.223,0.787-0.268,1.169c-0.058,0.391-0.145,0.746-0.187,1.164
	c-0.031,0.432-0.063,0.862-0.094,1.289l-0.012,0.16l-0.006,0.08c-0.002,0.067-0.001-0.046,0-0.02l0.001,0.037l0.009,0.301
	l0.016,0.603c0.016,0.4,0.008,0.8,0.043,1.195c0.05,0.392,0.101,0.784,0.151,1.172c0.046,0.39,0.091,0.777,0.196,1.151
	c0.642,3.029,1.921,5.751,3.539,7.957c1.624,2.205,3.549,3.91,5.44,5.131c1.9,1.206,3.727,2.04,5.306,2.476
	c0.394,0.112,0.762,0.258,1.119,0.325c0.357,0.076,0.691,0.146,1.002,0.211c0.315,0.066,0.606,0.127,0.873,0.182
	c0.271,0.03,0.52,0.056,0.741,0.08C25.7,39.345,26.172,39.396,26.172,39.396z"/>
</svg>
