<?xml version="1.0" encoding="iso-8859-1"?>
<!-- Generator: Adobe Illustrator 24.0.3, SVG Export Plug-In . SVG Version: 6.00 Build 0)  -->
<svg version="1.1" id="Layer_1" xmlns="http://www.w3.org/2000/svg" xmlns:xlink="http://www.w3.org/1999/xlink" x="0px" y="0px"
	 width="24px" height="24px" viewBox="0 0 24 24" style="enable-background:new 0 0 24 24;" xml:space="preserve">
<g>
	<path style="fill:#FF454F;" d="M949.748,793.08c-6.05,0-11,4.95-11,11s4.95,11,11,11s11-4.95,11-11S955.798,793.08,949.748,793.08z
		"/>
	<path style="fill:#FFFFFF;" d="M946.319,810.033c1.876-1.876,4.982-1.876,6.859,0c0.259,0.259,0.647,0.259,0.906,0
		c0.259-0.259,0.259-0.647,0-0.906c-1.197-1.197-2.75-1.812-4.335-1.812c-1.585,0-3.138,0.615-4.335,1.812
		c-0.259,0.259-0.259,0.647,0,0.906C945.672,810.292,946.06,810.292,946.319,810.033z"/>
	<circle style="fill:#FFFFFF;" cx="946.513" cy="801.492" r="1.618"/>
	<circle style="fill:#FFFFFF;" cx="952.983" cy="801.492" r="1.618"/>
</g>
<g>
	<path style="fill:#FF454F;" d="M949.748,793.08c-6.05,0-11,4.95-11,11s4.95,11,11,11s11-4.95,11-11S955.798,793.08,949.748,793.08z
		"/>
	<path style="fill:#FFFFFF;" d="M946.319,810.033c1.876-1.876,4.982-1.876,6.859,0c0.259,0.259,0.647,0.259,0.906,0
		c0.259-0.259,0.259-0.647,0-0.906c-1.197-1.197-2.75-1.812-4.335-1.812c-1.585,0-3.138,0.615-4.335,1.812
		c-0.259,0.259-0.259,0.647,0,0.906C945.672,810.292,946.06,810.292,946.319,810.033z"/>
	<circle style="fill:#FFFFFF;" cx="946.513" cy="801.492" r="1.618"/>
	<circle style="fill:#FFFFFF;" cx="952.983" cy="801.492" r="1.618"/>
</g>
<g>
	<path style="fill:#FF454F;" d="M949.748,793.08c-6.05,0-11,4.95-11,11s4.95,11,11,11s11-4.95,11-11S955.798,793.08,949.748,793.08z
		"/>
	<path style="fill:#FFFFFF;" d="M946.319,810.033c1.876-1.876,4.982-1.876,6.859,0c0.259,0.259,0.647,0.259,0.906,0
		c0.259-0.259,0.259-0.647,0-0.906c-1.197-1.197-2.75-1.812-4.335-1.812c-1.585,0-3.138,0.615-4.335,1.812
		c-0.259,0.259-0.259,0.647,0,0.906C945.672,810.292,946.06,810.292,946.319,810.033z"/>
	<circle style="fill:#FFFFFF;" cx="946.513" cy="801.492" r="1.618"/>
	<circle style="fill:#FFFFFF;" cx="952.983" cy="801.492" r="1.618"/>
</g>
<g>
	<path style="fill:#FF454F;" d="M949.748,793.08c-6.05,0-11,4.95-11,11s4.95,11,11,11s11-4.95,11-11S955.798,793.08,949.748,793.08z
		"/>
	<path style="fill:#FFFFFF;" d="M946.319,810.033c1.876-1.876,4.982-1.876,6.859,0c0.259,0.259,0.647,0.259,0.906,0
		c0.259-0.259,0.259-0.647,0-0.906c-1.197-1.197-2.75-1.812-4.335-1.812c-1.585,0-3.138,0.615-4.335,1.812
		c-0.259,0.259-0.259,0.647,0,0.906C945.672,810.292,946.06,810.292,946.319,810.033z"/>
	<circle style="fill:#FFFFFF;" cx="946.513" cy="801.492" r="1.618"/>
	<circle style="fill:#FFFFFF;" cx="952.983" cy="801.492" r="1.618"/>
</g>
<g>
	<g>
		<path style="fill:#FFB000;" d="M555.957,603.244c-6.05,0-11,4.95-11,11c0,6.05,4.95,11,11,11s11-4.95,11-11
			C566.957,608.194,562.007,603.244,555.957,603.244z"/>
		<circle style="fill:#FFFFFF;" cx="552.721" cy="611.656" r="1.618"/>
		<circle style="fill:#FFFFFF;" cx="559.192" cy="611.656" r="1.618"/>
	</g>
	<g>
		<path style="fill:#FFFFFF;" d="M559.276,619.838h-6.688c-0.441,0-0.799-0.358-0.799-0.799s0.358-0.799,0.799-0.799h6.688
			c0.441,0,0.799,0.358,0.799,0.799S559.717,619.838,559.276,619.838z"/>
	</g>
</g>
<g>
	<g>
		<path style="fill:#FFB000;" d="M12.062,0.938c-6.05,0-11,4.95-11,11s4.95,11,11,11s11-4.95,11-11S18.112,0.938,12.062,0.938z"/>
		<circle style="fill:#FFFFFF;" cx="8.827" cy="9.349" r="1.618"/>
		<circle style="fill:#FFFFFF;" cx="15.298" cy="9.349" r="1.618"/>
	</g>
	<g>
		<path style="fill:#FFFFFF;" d="M15.382,17.532H8.693c-0.441,0-0.799-0.358-0.799-0.799s0.358-0.799,0.799-0.799h6.688
			c0.441,0,0.799,0.358,0.799,0.799S15.823,17.532,15.382,17.532z"/>
	</g>
</g>
</svg>
